<svg xmlns="http://www.w3.org/2000/svg" style="display:none">
  <defs>
    <symbol id="i-home" viewBox="0 0 24 24"><path d="M4 11.5 12 5l8 6.5"/><path d="M6 10v9h12v-9"/></symbol>
    <symbol id="i-id" viewBox="0 0 24 24"><rect x="3" y="5" width="18" height="14" rx="2.5"/><circle cx="8.5" cy="12" r="2"/><path d="M13 10.5h5M13 14h4"/></symbol>
    <symbol id="i-cross" viewBox="0 0 24 24"><path d="M12 3v18M7 9h10"/></symbol>
    <symbol id="i-user" viewBox="0 0 24 24"><circle cx="12" cy="8.5" r="3.5"/><path d="M5 20c1.2-4 4-6 7-6s5.8 2 7 6"/></symbol>
    <symbol id="i-users" viewBox="0 0 24 24"><circle cx="9" cy="8.5" r="3"/><circle cx="17" cy="10" r="2.4"/><path d="M3.5 19c.8-3.2 3-5 5.5-5s4.7 1.8 5.5 5"/><path d="M15 14.6c1.9.2 3.4 1.7 4 4.4"/></symbol>
    <symbol id="i-cal-check" viewBox="0 0 24 24"><rect x="4" y="6" width="16" height="15" rx="3"/><path d="M8 3v5M16 3v5M4 11h16"/><path d="M9 15.6l2 2 4-4.4"/></symbol>
    <symbol id="i-heart" viewBox="0 0 24 24"><path d="M12 20s-7-4.3-9.3-8.7C1.3 8 3 5 6.4 5c2 0 3.4 1.1 4 2.3.6-1.2 2-2.3 4-2.3 3.4 0 5.1 3 3.7 6.3C19 15.7 12 20 12 20Z"/></symbol>
    <symbol id="i-grid" viewBox="0 0 24 24"><rect x="4" y="4" width="7" height="7" rx="1.5"/><rect x="13" y="4" width="7" height="7" rx="1.5"/><rect x="4" y="13" width="7" height="7" rx="1.5"/><rect x="13" y="13" width="7" height="7" rx="1.5"/></symbol>
    <symbol id="i-search" viewBox="0 0 24 24"><circle cx="11" cy="11" r="6.5"/><path d="M20 20l-4.5-4.5"/></symbol>
    <symbol id="i-bell" viewBox="0 0 24 24"><path d="M6 10a6 6 0 1 1 12 0c0 3 1 5 2 6H4c1-1 2-3 2-6Z"/><path d="M10 19a2 2 0 0 0 4 0"/></symbol>
    <symbol id="i-chevron" viewBox="0 0 24 24"><path d="M9 5l7 7-7 7"/></symbol>
    <symbol id="i-arrow-left" viewBox="0 0 24 24"><path d="M19 12H5"/><path d="M12 19l-7-7 7-7"/></symbol>
    <symbol id="i-phone" viewBox="0 0 24 24"><path d="M7 3h4l1.5 4-2 2c1 2.5 2.5 4 5 5l2-2 4 1.5v4c0 1-1 2-2 2C12 19.5 4.5 12 5 5c0-1 1-2 2-2Z"/></symbol>
    <symbol id="i-chat" viewBox="0 0 24 24"><path d="M4 12a8 8 0 1 1 3 6.2L4 20l1.8-3A8 8 0 0 1 4 12Z"/><path d="M8.5 10c0 3 2.5 5.5 5.5 5.5"/></symbol>
    <symbol id="i-mail" viewBox="0 0 24 24"><rect x="3" y="5" width="18" height="14" rx="2.5"/><path d="M4 7l8 6 8-6"/></symbol>
    <symbol id="i-cake" viewBox="0 0 24 24"><rect x="4" y="12" width="16" height="8" rx="2"/><path d="M4 16h16"/><path d="M8 12V9M12 12V9M16 12V9"/><circle cx="8" cy="7.3" r="1"/><circle cx="12" cy="7.3" r="1"/><circle cx="16" cy="7.3" r="1"/></symbol>
    <symbol id="i-rings" viewBox="0 0 24 24"><circle cx="9" cy="14" r="5"/><circle cx="15" cy="14" r="5"/></symbol>
    <symbol id="i-flag" viewBox="0 0 24 24"><path d="M6 3v18"/><path d="M6 4h11l-2.5 3.5L17 11H6"/></symbol>
    <symbol id="i-lock" viewBox="0 0 24 24"><rect x="5" y="11" width="14" height="9" rx="2.5"/><path d="M8 11V8a4 4 0 0 1 8 0v3"/></symbol>
    <symbol id="i-pencil" viewBox="0 0 24 24"><path d="M4 20l1-4 11-11 3 3-11 11-4 1Z"/><path d="M14 6l3 3"/></symbol>
    <symbol id="i-shield" viewBox="0 0 24 24"><path d="M12 3l7 3v6c0 5-3.5 7.5-7 9-3.5-1.5-7-4-7-9V6Z"/><path d="M9 12l2.2 2.2L15.5 10"/></symbol>
    <symbol id="i-cloud" viewBox="0 0 24 24"><path d="M7 17a4.5 4.5 0 0 1-.6-8.96A6 6 0 0 1 18 9.5a4 4 0 0 1-1 7.5H7Z"/><path d="M9.5 13.8l2 2 4-4.2"/></symbol>
    <symbol id="i-chart" viewBox="0 0 24 24"><path d="M4 20V10M10 20V6M16 20v-8M3 20h17"/></symbol>
    <symbol id="i-download" viewBox="0 0 24 24"><path d="M12 4v11M8 11l4 4 4-4"/><path d="M5 19h14"/></symbol>
    <symbol id="i-plus" viewBox="0 0 24 24"><path d="M12 5v14M5 12h14"/></symbol>
    <symbol id="i-check" viewBox="0 0 24 24"><path d="M5 13l4.5 4.5L19 7.5"/></symbol>
    <symbol id="i-x" viewBox="0 0 24 24"><path d="M6 6l12 12M18 6L6 18"/></symbol>
    <symbol id="i-moon" viewBox="0 0 24 24"><path d="M20 14.5A8.5 8.5 0 1 1 9.5 4a7 7 0 0 0 10.5 10.5Z"/></symbol>
    <symbol id="i-logout" viewBox="0 0 24 24"><path d="M9 4H6a2 2 0 0 0-2 2v12a2 2 0 0 0 2 2h3"/><path d="M15 16l5-4-5-4M20 12H9"/></symbol>
    <symbol id="i-eye" viewBox="0 0 24 24"><path d="M2 12s3.5-7 10-7 10 7 10 7-3.5 7-10 7-10-7-10-7Z"/><circle cx="12" cy="12" r="3"/></symbol>
    <symbol id="i-eye-off" viewBox="0 0 24 24"><path d="M2 12s3.5-7 10-7c2 0 3.7.6 5 1.5M22 12s-1 2-3 4"/><path d="M9.5 9.7A3 3 0 0 0 12 15a3 3 0 0 0 2.3-1"/><path d="M3 3l18 18"/></symbol>
    <symbol id="i-lock-small" viewBox="0 0 24 24"><rect x="5" y="11" width="14" height="9" rx="2.5"/><path d="M8 11V8a4 4 0 0 1 8 0v3"/></symbol>
    <symbol id="i-sun" viewBox="0 0 24 24"><circle cx="12" cy="12" r="4.2"/><path d="M12 3v2.2M12 18.8V21M4.2 12H2M22 12h-2.2M5.6 5.6l1.6 1.6M18.4 5.6l-1.6 1.6M5.6 18.4l1.6-1.6M18.4 18.4l-1.6-1.6"/></symbol>
    <symbol id="i-sunrise" viewBox="0 0 24 24"><circle cx="12" cy="14.5" r="4"/><path d="M2 19h20"/><path d="M12 4v3M5.5 8l1.6 1.6M18.5 8l-1.6 1.6"/></symbol>
    <symbol id="i-sunset" viewBox="0 0 24 24"><circle cx="12" cy="9.5" r="4"/><path d="M2 19h20"/><path d="M4.5 14.5h15"/><path d="M5.5 6l1.6 1.6M18.5 6l-1.6 1.6"/></symbol>
    <symbol id="i-note" viewBox="0 0 24 24"><path d="M6 3h9l3 3v15H6Z"/><path d="M15 3v3h3"/><path d="M9 11h6M9 15h6"/></symbol>
    <symbol id="i-pin" viewBox="0 0 24 24"><path d="M12 21s7-6.2 7-11.5A7 7 0 0 0 5 9.5C5 14.8 12 21 12 21Z"/><circle cx="12" cy="9.5" r="2.4"/></symbol>
    <symbol id="i-globe" viewBox="0 0 24 24"><circle cx="12" cy="12" r="8.5"/><path d="M3.5 12h17M12 3.5c2.5 2.4 3.8 5.4 3.8 8.5s-1.3 6.1-3.8 8.5c-2.5-2.4-3.8-5.4-3.8-8.5S9.5 5.9 12 3.5Z"/></symbol>
    <symbol id="i-trash" viewBox="0 0 24 24"><path d="M5 7h14M9 7V5a2 2 0 0 1 2-2h2a2 2 0 0 1 2 2v2M18 7l-.9 12.1a2 2 0 0 1-2 1.9H8.9a2 2 0 0 1-2-1.9L6 7"/><path d="M10 11v6M14 11v6"/></symbol>
    <symbol id="i-megaphone" viewBox="0 0 24 24"><path d="M3 10.5v3a1 1 0 0 0 1 1h1.5l1 5.5h2.2l-1-5.5H8l9 3.5v-11l-9 3.5H4a1 1 0 0 0-1 1Z"/><path d="M17.5 9.2a4 4 0 0 1 0 5.6"/></symbol>
    <symbol id="i-printer" viewBox="0 0 24 24"><path d="M6 9V4h12v5"/><rect x="4" y="9" width="16" height="8" rx="2"/><path d="M6 14h12v6H6Z"/></symbol>
    <symbol id="i-refresh" viewBox="0 0 24 24"><path d="M4 12a8 8 0 0 1 14-5.2M20 12a8 8 0 0 1-14 5.2"/><path d="M18 4v4h-4M6 20v-4h4"/></symbol>
    <symbol id="i-menu" viewBox="0 0 24 24"><path d="M4 6h16M4 12h16M4 18h16"/></symbol>
    <symbol id="i-minus" viewBox="0 0 24 24"><path d="M5 12h14"/></symbol>
    <symbol id="i-share" viewBox="0 0 24 24"><path d="M12 15V4M8 8l4-4 4 4"/><path d="M5 13v5a2 2 0 0 0 2 2h10a2 2 0 0 0 2-2v-5"/></symbol>
    <symbol id="i-expand" viewBox="0 0 24 24"><path d="M9 4H5a1 1 0 0 0-1 1v4M15 4h4a1 1 0 0 1 1 1v4M9 20H5a1 1 0 0 1-1-1v-4M15 20h4a1 1 0 0 0 1-1v-4"/></symbol>
    <symbol id="i-clock" viewBox="0 0 24 24"><circle cx="12" cy="12" r="8.5"/><path d="M12 7.5V12l3 2"/></symbol>
    <symbol id="i-instagram" viewBox="0 0 24 24"><rect x="3.5" y="3.5" width="17" height="17" rx="5"/><circle cx="12" cy="12" r="4"/><circle cx="17" cy="7" r="1"/></symbol>
    <symbol id="i-youtube" viewBox="0 0 24 24"><rect x="2.5" y="6" width="19" height="12" rx="4"/><path d="M10.5 9.5v5l4.5-2.5Z" fill="currentColor" stroke="none"/></symbol>
    <symbol id="i-building" viewBox="0 0 24 24"><rect x="5" y="3" width="14" height="18" rx="1.5"/><path d="M9 7h1M14 7h1M9 11h1M14 11h1M9 15h1M14 15h1"/><path d="M10 21v-4h4v4"/></symbol>
    <symbol id="i-image" viewBox="0 0 24 24"><rect x="3" y="4" width="18" height="16" rx="2.5"/><circle cx="8.5" cy="9.5" r="1.75"/><path d="M4 17l5-5 4 4 3-3 4 4"/></symbol>
    <symbol id="i-more" viewBox="0 0 24 24"><circle cx="5" cy="12" r="1.7" fill="currentColor" stroke="none"/><circle cx="12" cy="12" r="1.7" fill="currentColor" stroke="none"/><circle cx="19" cy="12" r="1.7" fill="currentColor" stroke="none"/></symbol>
    <symbol id="i-copy" viewBox="0 0 24 24"><rect x="8" y="8" width="12" height="12" rx="2"/><path d="M16 8V6a2 2 0 0 0-2-2H6a2 2 0 0 0-2 2v8a2 2 0 0 0 2 2h2"/></symbol>
    <symbol id="i-bell-off" viewBox="0 0 24 24"><path d="M8.6 5.2A6 6 0 0 1 18 10c0 3 1 5 2 6h-5"/><path d="M6.3 8.6C6.1 9 6 9.5 6 10c0 3-1 5-2 6h7"/><path d="M10 19a2 2 0 0 0 4 0"/><path d="M4 4l16 16"/></symbol>
    <symbol id="i-sort" viewBox="0 0 24 24"><path d="M7 4v14M7 18l-3.2-3.2M7 18l3.2-3.2"/><path d="M17 20V6M17 6l-3.2 3.2M17 6l3.2 3.2"/></symbol>
    <symbol id="i-link" viewBox="0 0 24 24"><path d="M10.5 13.5a4 4 0 0 0 5.7 0l2.3-2.3a4 4 0 0 0-5.7-5.7l-1.1 1.1"/><path d="M13.5 10.5a4 4 0 0 0-5.7 0l-2.3 2.3a4 4 0 0 0 5.7 5.7l1.1-1.1"/></symbol>
    <symbol id="i-whatsapp" viewBox="0 0 24 24"><path d="M12 3a9 9 0 0 0-7.8 13.5L3 21l4.7-1.2A9 9 0 1 0 12 3Z"/><path d="M8.4 8.8c.1-.6.5-1.3 1-1.3s.7.3.9.7c.2.5.4 1.1.2 1.5-.2.4-.6.5-.3.9.4.7 1.4 1.7 2.1 2.1.4.3.5-.1.9-.3.4-.2 1-.1 1.5.2.4.2.7.6.7.9-.1.7-1 1.2-1.7 1.2-1.4 0-4-1.4-5.1-3.8-.3-.6-.7-1.4-.2-2.1Z" fill="currentColor" stroke="none"/></symbol>
  </defs>
</svg>
